<svg width="24" height="24" viewBox="0 0 24 24" fill="none" xmlns="http://www.w3.org/2000/svg">
<g opacity="0.7">
<path d="M10.6791 9.57009C7.7348 9.42804 5.6882 10.4778 4.53931 12.7193C2.81597 16.0816 4.24025 21.5834 9.98955 21.5834C15.7388 21.5834 15.9052 16.0278 15.9052 15.4458C15.9052 15.0578 15.9052 12.8883 15.9052 8.93739C17.1349 9.71629 18.1716 10.1851 19.0155 10.3439C19.8594 10.5028 20.3959 10.5732 20.625 10.5551V7.31724C19.8444 7.22314 19.1694 7.04379 18.6 6.77919C17.7458 6.38224 16.052 5.28069 16.052 3.66616C16.0532 3.67406 16.0532 3.25759 16.052 2.41675H12.493C12.4824 10.3248 12.4824 14.6678 12.493 15.4458C12.5089 16.6128 11.6035 18.2453 9.7679 18.2453C7.93225 18.2453 7.0269 16.6142 7.0269 15.562C7.0269 14.9179 7.2481 13.9843 8.16265 13.293C8.705 12.883 9.45775 12.7193 10.6791 12.7193C10.6791 12.3415 10.6791 11.2918 10.6791 9.57009Z" stroke="black" stroke-width="2" stroke-linejoin="round"/>
</g>
</svg>
